<?xml version="1.0" standalone="no"?>
<!DOCTYPE svg PUBLIC "-//W3C//DTD SVG 20010904//EN"
 "http://www.w3.org/TR/2001/REC-SVG-20010904/DTD/svg10.dtd">
<svg version="1.0" xmlns="http://www.w3.org/2000/svg"
 width="260.000000pt" height="260.000000pt" viewBox="0 0 260.000000 260.000000"
 preserveAspectRatio="xMidYMid meet">
<metadata>
Created by potrace 1.14, written by Peter Selinger 2001-2017
</metadata>
<g transform="translate(0.000000,260.000000) scale(0.100000,-0.100000)"
fill="#000000" stroke="none">
<path d="M440 1280 l0 -560 130 0 130 0 0 230 0 230 250 0 250 0 0 -230 0
-230 388 0 c412 0 476 6 562 50 67 34 125 94 155 161 25 56 27 69 23 158 -5
110 -22 153 -85 212 -86 82 -153 99 -420 106 l-213 6 0 108 0 109 320 0 320 0
0 105 0 105 -525 0 -525 0 0 -220 0 -220 -250 0 -250 0 0 220 0 220 -130 0
-130 0 0 -560z m1553 -94 c45 -22 70 -66 70 -121 0 -60 -22 -97 -73 -122 -41
-21 -58 -23 -212 -23 l-168 0 0 146 0 146 173 -4 c144 -2 178 -6 210 -22z"/>
</g>
</svg>
